<?xml version="1.0" encoding="utf-8"?>
<!-- Generator: Adobe Illustrator 22.1.0, SVG Export Plug-In . SVG Version: 6.00 Build 0)  -->
<svg version="1.1" xmlns="http://www.w3.org/2000/svg" xmlns:xlink="http://www.w3.org/1999/xlink" x="0px" y="0px"
	 viewBox="0 0 1400 1000" style="enable-background:new 0 0 1400 1000;" xml:space="preserve">
<style type="text/css">
	.st0{fill:#F4F4F4;}
	.st1{fill:#064E56;}
	.st2{fill:#DBD7D7;}
	.st3{fill:#FFFFFF;}
	.st4{fill:#C3BABC;}
	.st5{fill:#6CCDF4;}
	.st6{opacity:0.34;fill:#00A0BA;}
	.st7{fill:#027D90;}
	.st8{opacity:0.25;fill:#064E56;}
	.st9{fill:#043335;}
	.st10{fill:none;stroke:#043335;stroke-width:3;stroke-miterlimit:10;}
	.st11{fill:#FACF15;}
	.st12{fill:#CD5127;}
	.st13{fill:#EC1854;}
	.st14{fill:#F9B316;}
	.st15{fill:#EFEAEA;}
	.st16{fill:#B2AAAA;}
	.st17{opacity:0.59;fill:#F76400;}
	.st18{fill:#F98E00;}
	.st19{fill:#FFE783;}
	.st20{fill:#F76400;}
	.st21{fill:#2499BC;}
	.st22{fill:#14778E;}
	.st23{fill:#EEDDAE;}
	.st24{fill:#C51F47;}
</style>
<g id="OBJECTS">
	<rect class="st0" width="1400" height="1000" fill-opacity="0"/>
</g>
<g id="BACKGROUND">
	<line class="st1" x1="1230.5" y1="-435" x2="820.5" y2="-435"/>
	<g>
		<path class="st2" d="M936.3,374H452c-21.2,0-38.4,17.2-38.4,38.4V733c0,21.2,17.2,38.4,38.4,38.4h484.3
			c21.2,0,38.4-17.2,38.4-38.4V412.4C974.8,391.2,957.6,374,936.3,374z"/>
		<path class="st1" d="M974.8,706.9V412.4c0-21.2-17.2-38.4-38.4-38.4H452c-21.2,0-38.4,17.2-38.4,38.4v294.5H974.8z"/>
		<path class="st3" d="M439.8,656.7V417c0-7.8,6.3-14.2,14.2-14.2h480.3c7.8,0,14.2,6.3,14.2,14.2v239.7c0,7.8-6.3,14.2-14.2,14.2
			H454C446.2,670.9,439.8,664.6,439.8,656.7z"/>
		<path class="st2" d="M778,807.7L778,807.7l0-36.8H610.3v36.8c0,0-6.9,32.9-65.4,33.9c-8.2,0.1-14.8,6.9-14.8,15.1v21.4h142h44.1
			h142v-21.4c0-8.2-6.6-15-14.8-15.1C784.9,840.6,778,807.7,778,807.7z"/>
		<rect x="610.3" y="770.9" class="st4" width="167.7" height="17.9"/>
		<circle class="st1" cx="694.2" cy="738.2" r="17"/>
		<g>
			<g>
				<path class="st5" d="M870.5,475.6c0,28.3-6.6,55.1-18.2,78.8v0c-28.8,58.6-88.8,98.9-158,98.9c-15,0-29.6-1.9-43.5-5.5
					c-76.3-19.5-132.8-89.3-132.8-172.3c0-10.8,0.9-21.3,2.8-31.6c7.4-41.6,29.2-78.2,59.9-104.3c19.7-16.8,43.2-29.3,68.9-36
					c14.3-3.8,29.3-5.8,44.7-5.8c47.3,0,90.3,18.8,121.9,49.4C849.6,379.6,870.5,425.1,870.5,475.6z"/>
				<path class="st6" d="M816.1,347.2c-22.7-22-51.3-37.8-83.1-45.1c8.3,5.5,16.1,11.8,23.3,18.8c31.4,30.3,50.9,73,50.9,120.3
					c0,26.5-6.2,51.6-17.1,73.9v0c-27,54.9-83.2,92.7-148.1,92.7c-14.1,0-27.7-1.8-40.8-5.1c-17.7-4.5-34.2-11.9-49-21.6
					c23.8,32.5,58.4,56.6,98.4,66.9c13.9,3.6,28.5,5.5,43.5,5.5c69.3,0,129.2-40.3,158-98.9v0c11.7-23.8,18.2-50.5,18.2-78.8
					C870.5,425.1,849.6,379.6,816.1,347.2z"/>
				<path class="st7" d="M792.6,424.8c-2.6,16-9.9,30-20.5,38.7s1.3,34.7-14.6,48.7c-15.9,14-37.7,21.3-32.4,15.3
					c5.3-6,4-30.7-4.6-42.7c-8.6-12,7.3-27.4,1.3-38c-6-10.7-1.3-18.7-6.6-26.7c-5.3-8-39.7-6-44.3-6.7c-4.6-0.7-26.5-10-26.5-22
					c0-12,15.9-32,13.2-42.7c-2.6-10.7,29.3-9.1,40.6-1.1c11.2,8,20.8,11.5,28.8,0.8c7.9-10.7,8.7,8.3,26.6-1.7
					c17.9-10-11.2-25.4-23.8-25.4c-12.6,0,5.3,16-9.3,18.7c-14.6,2.7-25.1-5.3-16.5-22c8.6-16.7-45.7,2.7-61.5,0
					c-6.4-1.1-1.8-7.1,7.1-14.4c14.3-3.8,29.3-5.8,44.7-5.8c47.3,0,90.3,18.8,121.9,49.4l-3.7,0.7c-9.1,1.8-16.3,8.9-17.7,18.1
					c-0.2,1.4-0.3,2.7-0.2,4c0.7,9.3,28.2,12.9,28.5,17.3C824.1,407.9,795.2,408.8,792.6,424.8z"/>
				<path class="st7" d="M685.1,479c0,0-25.8,24-30.4,31.4c-4.6,7.3-39,11.3-55.6,32c-16.5,20.7-31.1,41.4-31.1,41.4
					s-23.8-8.7-19.9-28c4-19.3,30.4-60.7,5.3-76.7c-12.7-8.1-24.3-22.6-32.8-35c7.4-41.6,29.2-78.2,59.9-104.3
					c-1.2,16.5-2.2,14.8,3.4,21.2c15.1,17.2,4.5,16.7-6,17.4c-10.6,0.7-20.4-4.1-22.4,11.9c-2,16,9.4-4.8,33.9,6.5
					c24.5,11.3,5.6,36.2,42,46.9C667.9,454.3,685.1,479,685.1,479z"/>
				<path class="st7" d="M852.2,554.4L852.2,554.4c-28.8,58.6-88.8,98.9-158,98.9c-15,0-29.6-1.9-43.5-5.5l-7-16.9
					c0,0,33.1-77.4,63.5-76.7c30.4,0.7,66.2-6,66.2-6l76.8-28.7L852.2,554.4z"/>
			</g>
			<g>
				<g>
					<path class="st8" d="M807.2,339.2l-6.2,3.8c-32.5,20.3-67.3,30.6-103.5,30.6c0,0,0,0,0,0c-61.4,0-104.9-29.8-106.7-31l-7.3-5.1
						v-0.2c5.4-4.4,11.1-8.5,17.1-12.3v3.6c0,0,90.6,63,191.5,0v-0.9C797.3,331.3,802.4,335.1,807.2,339.2z"/>
					<path class="st1" d="M600.5,228.1v100.5c0,0,90.6,63,191.5,0V228.1H600.5z"/>
					<path class="st7" d="M629.2,228.1h-28.7v100.5c0,0,10.6,7.4,28.7,14.6V228.1z"/>
					<path class="st9" d="M744.5,228.1V350c15.3-4.4,31.3-11.3,47.5-21.4V228.1H744.5z"/>
					<polygon class="st7" points="696.3,312.1 842.9,224.8 696.3,137.5 696.3,137.4 696.3,137.4 696.2,137.4 696.2,137.5 
						549.7,224.8 696.2,312.1 696.2,312.2 696.3,312.1 696.3,312.2 					"/>
					<polygon class="st9" points="792,255.1 792,267 696.3,324 696.3,324 696.3,324 696.2,324 696.2,324 600.5,267 600.5,255.1 
						696.2,312.1 696.2,312.2 696.3,312.1 696.3,312.2 696.3,312.1 					"/>
				</g>
				<polyline class="st10" points="700.7,225.3 842.9,225.3 842.9,295.7 				"/>
				<path class="st9" d="M722.3,225.3c0-4.2-9-7.6-20-7.6s-20,3.4-20,7.6c0,4.2,9,7.6,20,7.6S722.3,229.5,722.3,225.3z"/>
				<g>
					<path class="st9" d="M857.7,287.3c0-7.9-6.4-14.3-14.3-14.3s-14.3,6.4-14.3,14.3v12.2h28.7V287.3z"/>
					<rect x="829" y="299.5" class="st5" width="28.7" height="17.3"/>
				</g>
			</g>
		</g>
		<g>
			<g>
				<g>
					<rect x="326" y="640.7" class="st5" width="271.4" height="66"/>
				</g>
				<g>
					<g>
						<rect x="524.2" y="640.7" class="st7" width="11.9" height="66"/>
					</g>
					<g>
						<rect x="551.9" y="640.7" class="st7" width="11.9" height="66"/>
					</g>
					<g>
						<rect x="359.5" y="640.7" class="st7" width="11.9" height="66"/>
					</g>
					<g>
						<rect x="387.2" y="640.7" class="st7" width="11.9" height="66"/>
					</g>
				</g>
			</g>
			<g>
				<g>
					<rect x="306.7" y="706.3" class="st1" width="310" height="53.5"/>
				</g>
				<g>
					<rect x="564.5" y="706.3" class="st3" width="25.6" height="53.5"/>
				</g>
				<g>
					<rect x="327.6" y="706.3" class="st3" width="25.6" height="53.5"/>
				</g>
			</g>
			<g>
				<g>
					<rect x="313.6" y="759.7" class="st11" width="296.2" height="53.5"/>
				</g>
				<g>
					<rect x="377.3" y="772.6" class="st12" width="177.4" height="30.7"/>
				</g>
				<g>
					<rect x="576" y="759.7" class="st12" width="13.3" height="53.5"/>
				</g>
				<g>
					<rect x="338.1" y="759.7" class="st12" width="13.3" height="53.5"/>
				</g>
			</g>
			<g>
				<g>
					<g>
						<rect x="297.9" y="812.9" class="st13" width="327.8" height="64.6"/>
					</g>
				</g>
				<g>
					<g>
						<rect x="374.4" y="829.9" class="st3" width="174.6" height="34.4"/>
					</g>
				</g>
				<g>
					<g>
						<g>
							<rect x="570.3" y="812.9" class="st3" width="14.8" height="64.6"/>
						</g>
					</g>
					<g>
						<g>
							<rect x="338.4" y="812.9" class="st3" width="14.8" height="64.6"/>
						</g>
					</g>
				</g>
			</g>
		</g>
		<g>
			<path class="st1" d="M1029.9,269.8l-7.3-28.4l-20.2,1.6c-2.1-3.5-4.5-6.7-7.2-9.6l7.1-19L977,199.4l-13.2,15.4
				c-3.9-0.9-7.9-1.5-11.9-1.7l-8.4-18.5L915,202l1.6,20.2c-3.5,2.1-6.7,4.5-9.6,7.2l-19-7.1l-14.9,25.3l15.4,13.2
				c-0.9,3.9-1.5,7.9-1.7,11.9l-18.5,8.4l7.3,28.4l20.2-1.6c2.1,3.5,4.5,6.7,7.2,9.6l-7.1,19l25.3,14.9l13.2-15.4
				c3.9,0.9,7.9,1.5,11.9,1.7l8.4,18.5l28.4-7.3l-1.6-20.2c3.5-2.1,6.7-4.5,9.6-7.2l19,7.1l14.9-25.3l-15.4-13.2
				c0.9-3.9,1.5-7.9,1.7-11.9L1029.9,269.8z M956.5,304c-15.7,4.1-31.8-5.4-35.8-21.1c-4.1-15.7,5.4-31.8,21.1-35.8
				c15.7-4.1,31.8,5.4,35.8,21.1C981.7,283.9,972.2,299.9,956.5,304z"/>
			<path class="st5" d="M1133.8,220.5l-6.1-18.3l-13.2,2c-1.5-2.2-3.3-4.2-5.2-5.9l3.8-12.8l-17.3-8.6l-7.9,10.7
				c-2.6-0.4-5.2-0.6-7.9-0.5l-6.4-11.7l-18.3,6.1l2,13.2c-2.2,1.5-4.2,3.3-5.9,5.2l-12.8-3.8l-8.6,17.2l10.7,7.9
				c-0.4,2.6-0.6,5.2-0.5,7.9l-11.7,6.4l6.1,18.3l13.2-2c1.5,2.2,3.3,4.2,5.2,5.9l-3.8,12.8l17.2,8.6l7.9-10.7
				c2.6,0.4,5.2,0.6,7.9,0.5l6.4,11.7l18.3-6.1l-2-13.2c2.2-1.5,4.2-3.3,5.9-5.2l12.8,3.8l8.6-17.3l-10.7-7.9
				c0.4-2.6,0.6-5.2,0.5-7.9L1133.8,220.5z M1088.7,250.5c-12.4,4.2-25.9-2.5-30.1-14.9c-4.2-12.4,2.5-25.9,14.9-30.1
				c12.4-4.2,25.9,2.5,30.1,14.9C1107.9,232.9,1101.2,246.3,1088.7,250.5z M1085.8,241.6c-7.5,2.5-15.6-1.5-18.2-9
				c-2.5-7.5,1.5-15.6,9-18.2c7.5-2.5,15.6,1.5,18.2,9S1093.3,239.1,1085.8,241.6z"/>
			<g>
				<path class="st7" d="M1187,399.3v-23h-15c-0.3-2.2-0.8-4.5-1.3-6.6l13.9-5.7l-8.8-21.2l-13.9,5.7c-1.2-2-2.5-3.9-3.8-5.7
					l10.6-10.6l-16.3-16.3l-10.6,10.6c-1.8-1.3-3.7-2.6-5.6-3.8l5.7-13.9l-21.2-8.8l-5.7,13.9c-2.2-0.5-4.5-1-6.7-1.3v-15h-23v15
					c-2.2,0.3-4.5,0.8-6.6,1.3l-5.7-13.9l-21.2,8.8l5.7,13.9c-2,1.2-3.9,2.5-5.7,3.8l-10.6-10.6l-16.3,16.3l10.6,10.6
					c-1.3,1.8-2.6,3.7-3.8,5.6l-13.9-5.7l-8.8,21.2l13.9,5.7c-0.5,2.2-1,4.5-1.3,6.7h-15v23h15c0.3,2.2,0.8,4.5,1.3,6.6l-13.9,5.7
					l8.8,21.2l13.9-5.7c1.2,2,2.5,3.9,3.8,5.7l-10.6,10.6l16.3,16.3l10.6-10.6c1.8,1.3,3.7,2.6,5.6,3.8l-5.7,13.9l21.2,8.8l5.7-13.9
					c2.2,0.5,4.5,1,6.7,1.3v15h23v-15c2.2-0.3,4.5-0.8,6.6-1.3l5.7,13.9l21.2-8.8l-5.7-13.9c2-1.2,3.9-2.5,5.7-3.8l10.6,10.6
					l16.3-16.3l-10.6-10.6c1.3-1.8,2.6-3.7,3.8-5.6l13.9,5.7l8.8-21.2l-13.9-5.7c0.5-2.2,1-4.5,1.3-6.7H1187z M1096.8,441.9
					c-29.9,0-54.1-24.2-54.1-54.1s24.2-54.1,54.1-54.1c29.9,0,54.1,24.2,54.1,54.1S1126.7,441.9,1096.8,441.9z"/>
				<circle class="st7" cx="1096.8" cy="387.8" r="32"/>
			</g>
		</g>
		<g>
			<g>
				<path class="st5" d="M398,576.7v-14.2h-9.3c-0.2-1.4-0.5-2.8-0.8-4.1l8.6-3.5l-5.4-13.2l-8.6,3.5c-0.7-1.2-1.5-2.4-2.4-3.5
					l6.6-6.6L376.6,525l-6.6,6.6c-1.1-0.8-2.3-1.6-3.5-2.3l3.6-8.6l-13.1-5.5l-3.6,8.6c-1.4-0.3-2.8-0.6-4.2-0.8v-9.3H335v9.3
					c-1.4,0.2-2.8,0.5-4.1,0.8l-3.5-8.6l-13.2,5.4l3.5,8.6c-1.2,0.7-2.4,1.5-3.5,2.4l-6.6-6.6l-10.1,10.1l6.6,6.6
					c-0.8,1.1-1.6,2.3-2.3,3.5l-8.6-3.6l-5.5,13.1l8.6,3.6c-0.3,1.4-0.6,2.8-0.8,4.2h-9.3v14.2h9.3c0.2,1.4,0.5,2.8,0.8,4.1
					l-8.6,3.5l5.4,13.2l8.6-3.5c0.7,1.2,1.5,2.4,2.4,3.5l-6.6,6.6l10.1,10.1l6.6-6.6c1.1,0.8,2.3,1.6,3.5,2.3l-3.6,8.6l13.1,5.5
					l3.6-8.6c1.4,0.3,2.8,0.6,4.2,0.8v9.3h14.2v-9.3c1.4-0.2,2.8-0.5,4.1-0.8l3.5,8.6l13.2-5.4l-3.5-8.6c1.2-0.7,2.4-1.5,3.5-2.4
					l6.6,6.6l10.1-10.1l-6.6-6.6c0.8-1.1,1.6-2.3,2.3-3.5l8.6,3.6l5.5-13.1l-8.6-3.6c0.3-1.4,0.6-2.8,0.8-4.2H398z M342.1,603.1
					c-18.5,0-33.5-15-33.5-33.5c0-18.5,15-33.5,33.5-33.5c18.5,0,33.5,15,33.5,33.5C375.7,588.1,360.7,603.1,342.1,603.1z"/>
				<circle class="st5" cx="342.1" cy="569.6" r="19.8"/>
			</g>
			<g>
				<path class="st1" d="M179.7,420.2v32.8l22.3,3.9c1.3,4.3,3,8.5,5.1,12.4l-13,18.6l23.2,23.2l18.6-13c3.9,2.1,8.1,3.8,12.4,5.1
					l3.9,22.3h32.8l3.9-22.3c4.3-1.3,8.5-3,12.4-5.1l18.6,13l23.2-23.2l-13-18.6c2.1-3.9,3.8-8.1,5.1-12.4l22.3-3.9v-32.8l-22.3-3.9
					c-1.3-4.3-3.1-8.5-5.1-12.4l13-18.6L320,362l-18.6,13c-3.9-2.1-8.1-3.8-12.4-5.1l-3.9-22.3h-32.8l-3.9,22.3
					c-4.3,1.3-8.5,3-12.4,5.1l-18.6-13l-23.2,23.2l13,18.6c-2.1,3.9-3.8,8.1-5.1,12.4L179.7,420.2z M268.7,385.7
					c28.1,0,50.8,22.7,50.8,50.8c0,28.1-22.7,50.8-50.8,50.8c-28,0-50.8-22.7-50.8-50.8C217.9,408.5,240.6,385.7,268.7,385.7z
					 M268.7,414.8c12,0,21.8,9.7,21.8,21.8c0,12-9.7,21.8-21.8,21.8c-12,0-21.8-9.7-21.8-21.8C246.9,424.5,256.7,414.8,268.7,414.8z
					"/>
			</g>
			<path class="st7" d="M142.1,602.8l7.7,23l16.6-2.5c1.9,2.7,4.1,5.2,6.5,7.5l-4.8,16.1l21.8,10.8l10-13.5c3.3,0.5,6.6,0.8,9.9,0.7
				l8.1,14.8l23-7.7l-2.5-16.6c2.7-2,5.2-4.1,7.5-6.5l16.1,4.8l10.8-21.8l-13.5-10c0.5-3.3,0.8-6.6,0.7-9.9l14.8-8.1l-7.7-23
				l-16.6,2.5c-2-2.7-4.2-5.2-6.6-7.5l4.8-16.1L227,528.8l-10,13.5c-3.3-0.5-6.6-0.8-9.9-0.7l-8-14.8l-23,7.7l2.5,16.6
				c-2.7,1.9-5.2,4.1-7.5,6.5l-16.1-4.8L144,574.8l13.5,10c-0.5,3.3-0.8,6.6-0.7,9.9L142.1,602.8z M197.1,559.3
				c18.8-6.3,39.1,3.8,45.4,22.6c6.3,18.8-3.8,39.1-22.6,45.4c-18.8,6.3-39.1-3.8-45.4-22.6C168.2,586,178.3,565.6,197.1,559.3z
				 M201.1,571.2c12.2-4.1,25.4,2.5,29.6,14.7c4.1,12.2-2.5,25.4-14.7,29.6c-12.2,4.1-25.4-2.5-29.6-14.7
				C182.3,588.5,188.9,575.3,201.1,571.2z"/>
		</g>
		<g>
			<path class="st11" d="M411.5,127.6C411.5,127.6,411.4,127.6,411.5,127.6l0,0.2l-0.1-0.2c0,0-0.1,0-0.1,0
				c-38.1,17.2-54.6,62.3-36.9,100c2.2,4.6,6,9.6,10.3,14.3c9.1,10.1,19.9,18.4,31.8,24.9c12.4,6.8,32.1,19.3,41.8,34.1l28.3-13.3
				l0-0.1l0.1,0.1l28.3-13.3c-5.2-17-2.2-40.1,0.5-54c2.6-13.3,3.1-26.9,1.2-40.4c-0.9-6.3-2.3-12.4-4.5-17
				C494.3,125.4,449.1,109.3,411.5,127.6z"/>
			<path class="st14" d="M420.6,123.9c20.9,4.5,39.5,18.3,49.3,39.2c16.6,35.4,1.4,77.6-34,94.2c-8,3.8-16.3,5.9-24.7,6.5
				c1.7,1.1,3.5,2.1,5.2,3.1c12.4,6.8,32.1,19.3,41.8,34.1l28.3-13.3l0-0.1l0.1,0.1l28.3-13.3c-5.2-17-2.2-40.1,0.5-54
				c2.6-13.3,3.1-26.9,1.2-40.4c-0.9-6.3-2.3-12.4-4.5-17C495.7,128.4,456.1,112,420.6,123.9z"/>
			<path class="st1" d="M517.2,280.5c3.7-1.8,5.4-6.2,3.6-10l-0.2-0.5c-1.8-3.7-6.2-5.4-10-3.6l-55.8,26.2c-3.7,1.8-5.4,6.2-3.6,10
				l0.2,0.5c1.8,3.7,6.2,5.4,10,3.6l5.6-2.6c0.8-0.4,1.7,0,2.1,0.7l0,0c0.4,0.8,0,1.7-0.7,2.1l-5.6,2.6c-3.7,1.8-5.4,6.2-3.6,10
				l0.2,0.5c1.8,3.7,6.2,5.4,10,3.6l5.6-2.6c0.8-0.4,1.7,0,2.1,0.7l0,0c0.4,0.8,0,1.7-0.7,2.1l-5.6,2.6c-3.7,1.8-5.4,6.2-3.6,10
				l0.2,0.5c1.8,3.7,6.2,5.4,10,3.6l7.6-3.6c6.5,8.1,18,11.1,27.8,6.5c9.9-4.6,14.9-15.3,12.8-25.5l7.6-3.6c3.7-1.8,5.4-6.2,3.6-10
				l-0.2-0.5c-1.8-3.7-6.2-5.4-10-3.6l-5.6,2.6c-0.8,0.4-1.7,0-2.1-0.7l0,0c-0.4-0.8,0-1.7,0.7-2.1l5.6-2.6c3.7-1.8,5.4-6.2,3.6-10
				l-0.2-0.5c-1.8-3.7-6.2-5.4-10-3.6l-5.6,2.6c-0.8,0.4-1.7,0-2.1-0.7l0-0.1c-0.4-0.8,0-1.7,0.7-2.1L517.2,280.5z"/>
			<g>
				
					<ellipse transform="matrix(0.7936 -0.6084 0.6084 0.7936 -16.8749 281.6561)" class="st3" cx="406.7" cy="165.7" rx="19.7" ry="19.7"/>
				
					<ellipse transform="matrix(0.9795 -0.2016 0.2016 0.9795 -33.3329 84.4253)" class="st3" cx="397.8" cy="205.9" rx="10.9" ry="10.9"/>
			</g>
		</g>
		<path class="st13" d="M376.8,310.9c0,4-1.7,7.6-4.3,10.2l-19.3,19.3l-1.1-1.1l-18.2-18.2c-2.7-2.6-4.3-6.2-4.3-10.2
			c0-7.9,6.4-14.3,14.3-14.3c3.5,0,6.8,1.3,9.3,3.4c2.5-2.1,5.7-3.4,9.3-3.4C370.4,296.6,376.8,303,376.8,310.9z"/>
		<path class="st13" d="M232.6,778.5c0,5.5-2.3,10.4-5.9,14l-26.3,26.3l-1.5-1.5L174,792.5c-3.6-3.5-5.9-8.5-5.9-14
			c0-10.8,8.8-19.5,19.5-19.5c4.8,0,9.3,1.8,12.7,4.7c3.4-2.9,7.8-4.7,12.7-4.7C223.8,758.9,232.6,767.7,232.6,778.5z"/>
		<path class="st13" d="M1212.3,508.2c0,3.7-1.5,7.1-4,9.5l-17.9,17.9l-1-1l-16.9-16.9c-2.5-2.4-4-5.8-4-9.5
			c0-7.3,5.9-13.3,13.3-13.3c3.3,0,6.3,1.2,8.6,3.2c2.3-2,5.3-3.2,8.6-3.2C1206.4,495,1212.3,500.9,1212.3,508.2z"/>
		<path class="st13" d="M1225.4,257.1c0,4.7-1.9,8.9-5,11.9l-22.3,22.4l-1.3-1.3l-21.1-21.1c-3.1-3-5-7.2-5-11.9
			c0-9.2,7.4-16.6,16.6-16.6c4.1,0,7.9,1.5,10.8,4c2.9-2.5,6.7-4,10.8-4C1218,240.5,1225.4,248,1225.4,257.1z"/>
		<polygon class="st5" points="261.5,244.3 266.9,264 286.5,269.4 266.9,274.8 261.5,294.5 256.1,274.8 236.4,269.4 256.1,264 		"/>
		<polygon class="st5" points="107.6,395.2 115.5,423.9 144.2,431.8 115.5,439.7 107.6,468.4 99.7,439.7 71,431.8 99.7,423.9 		"/>
		<polygon class="st5" points="255,700.1 260,718.1 278,723.1 260,728 255,746.1 250,728 232,723.1 250,718.1 		"/>
		<polygon class="st5" points="1223.7,624.1 1230.1,647.7 1253.7,654.2 1230.1,660.7 1223.7,684.2 1217.2,660.7 1193.6,654.2 
			1217.2,647.7 		"/>
		<polygon class="st5" points="829.1,120.2 834.1,138.3 852.2,143.3 834.1,148.2 829.1,166.3 824.1,148.2 806,143.3 824.1,138.3 		
			"/>
		<polygon class="st5" points="566.5,118.9 571.5,137 589.6,142 571.5,147 566.5,165.1 561.6,147 543.5,142 561.6,137 		"/>
		<polygon class="st5" points="1276.6,404.3 1285.1,435.1 1315.9,443.6 1285.1,452 1276.6,482.8 1268.2,452 1237.4,443.6 
			1268.2,435.1 		"/>
		<g>
			<path class="st15" d="M1124.6,509.5h-187c-14.2,0-25.7,11.5-25.7,25.7V796c0,14.2,11.5,25.7,25.7,25.7h187
				c14.2,0,25.7-11.5,25.7-25.7V535.2C1150.3,521,1138.8,509.5,1124.6,509.5z"/>
			<g>
				<path class="st16" d="M1109.2,548.7H959.5c-4.6,0-8.3,3.7-8.3,8.3l0,0c0,4.6,3.7,8.3,8.3,8.3h149.7c4.6,0,8.3-3.7,8.3-8.3l0,0
					C1117.5,552.4,1113.8,548.7,1109.2,548.7z"/>
				<path class="st16" d="M1109.2,600.1H959.5c-4.6,0-8.3,3.7-8.3,8.3l0,0c0,4.6,3.7,8.3,8.3,8.3h149.7c4.6,0,8.3-3.7,8.3-8.3l0,0
					C1117.5,603.8,1113.8,600.1,1109.2,600.1z"/>
				<path class="st16" d="M1109.2,651.5H959.5c-4.6,0-8.3,3.7-8.3,8.3l0,0c0,4.6,3.7,8.3,8.3,8.3h149.7c4.6,0,8.3-3.7,8.3-8.3l0,0
					C1117.5,655.3,1113.8,651.5,1109.2,651.5z"/>
				<path class="st16" d="M1109.2,703H959.5c-4.6,0-8.3,3.7-8.3,8.3l0,0c0,4.6,3.7,8.3,8.3,8.3h149.7c4.6,0,8.3-3.7,8.3-8.3l0,0
					C1117.5,706.7,1113.8,703,1109.2,703z"/>
			</g>
			<g>
				<g>
					<polygon class="st11" points="998.7,858.9 994.3,841.2 978.4,836.7 1012.7,799 1033,821.2 					"/>
					<polygon class="st11" points="1062.8,858.9 1067.2,841.2 1083,836.7 1048.7,799 1028.5,821.2 					"/>
				</g>
				<g>
					<path class="st11" d="M1028.5,821.3l2.2,2.5l-11,12.1c-10.4-2.2-19.8-7.5-26.9-14.9l19.9-21.9l18,19.8L1028.5,821.3z"/>
					<path class="st11" d="M1068.6,820.9c-7.2,7.4-16.5,12.7-26.9,14.9l-11-12.1l2.2-2.5l-2.2-2.5l18-19.8L1068.6,820.9z"/>
				</g>
				<path class="st17" d="M1028.5,821.3l2.2,2.5l-11,12.1c-10.4-2.2-19.8-7.5-26.9-14.9l19.9-21.9l18,19.8L1028.5,821.3z"/>
				<path class="st17" d="M1068.6,820.9c-7.2,7.4-16.5,12.7-26.9,14.9l-11-12.1l2.2-2.5l-2.2-2.5l18-19.8L1068.6,820.9z"/>
				<g>
					<g>
						<circle class="st11" cx="1030.7" cy="784.2" r="45.5"/>
						
							<ellipse transform="matrix(0.9783 -0.2072 0.2072 0.9783 -140.1498 230.6353)" class="st18" cx="1030.7" cy="784.2" rx="29.6" ry="29.6"/>
						<path class="st19" d="M1003.7,786c0-16.3,13.3-29.6,29.6-29.6c5.5,0,10.7,1.5,15.1,4.2c-4.9-3.7-11.1-5.9-17.7-5.9
							c-16.3,0-29.6,13.3-29.6,29.6c0,10.8,5.8,20.3,14.5,25.4C1008.4,804.3,1003.7,795.7,1003.7,786z"/>
						<path class="st20" d="M1043.6,757.6c6.5,5.4,10.7,13.6,10.7,22.8c0,16.3-13.3,29.6-29.6,29.6c-4.6,0-9-1.1-12.9-2.9
							c5.1,4.2,11.7,6.8,18.9,6.8c16.3,0,29.6-13.3,29.6-29.6C1060.3,772.5,1053.5,762.4,1043.6,757.6z"/>
					</g>
					<polygon class="st20" points="1030,772.7 1033.5,782.5 1043.8,782.8 1035.6,789.2 1038.5,799.1 1030,793.3 1021.4,799.1 
						1024.3,789.2 1016.1,782.8 1026.5,782.5 					"/>
				</g>
			</g>
		</g>
		<g>
			<rect x="867.7" y="649.5" class="st21" width="60.6" height="199"/>
			<rect x="867.7" y="649.5" class="st5" width="18.8" height="199"/>
			<rect x="909.5" y="649.5" class="st22" width="18.8" height="199"/>
			<polygon class="st23" points="928.4,649.5 867.7,649.5 895.5,581.2 900.7,581.2 			"/>
			<polygon class="st1" points="914.1,614.4 900.7,581.2 895.5,581.2 882,614.4 			"/>
			<path class="st13" d="M916.6,876.6h-37c-6.5,0-11.8-5.3-11.8-11.8v-16.3h60.6v16.3C928.4,871.3,923.1,876.6,916.6,876.6z"/>
			<path class="st24" d="M909.9,848.5h-42.2v5.8h42.2v10.5c0,6.5-5.3,11.8-11.8,11.8h18.5c6.5,0,11.8-5.3,11.8-11.8v-10.5v-5.8
				H909.9z"/>
		</g>
		<path class="st1" d="M1325.8,873.9H78.3c-1.8,0-3.2,1.4-3.2,3.2l0,0c0,1.8,1.4,3.2,3.2,3.2h1247.5c1.8,0,3.2-1.4,3.2-3.2l0,0
			C1329,875.3,1327.6,873.9,1325.8,873.9z"/>
		<path class="st13" d="M1192.3,783.8c0,6.1-2.5,11.5-6.5,15.5l-29.1,29.1l-1.7-1.7l-27.5-27.5c-4-3.9-6.5-9.4-6.5-15.5
			c0-11.9,9.7-21.6,21.6-21.6c5.4,0,10.3,2,14,5.2c3.8-3.2,8.7-5.2,14-5.2C1182.6,762.2,1192.3,771.8,1192.3,783.8z"/>
	</g>
</g>
</svg>
